<?xml version="1.0" encoding="UTF-8" standalone="no"?>
<!-- Created with Inkscape (http://www.inkscape.org/) -->

<svg
   xmlns:dc="http://purl.org/dc/elements/1.1/"
   xmlns:cc="http://creativecommons.org/ns#"
   xmlns:rdf="http://www.w3.org/1999/02/22-rdf-syntax-ns#"
   xmlns:svg="http://www.w3.org/2000/svg"
   xmlns="http://www.w3.org/2000/svg"
   xmlns:sodipodi="http://sodipodi.sourceforge.net/DTD/sodipodi-0.dtd"
   xmlns:inkscape="http://www.inkscape.org/namespaces/inkscape"
   width="905.2254"
   height="765"
   id="svg4843"
   version="1.1"
   inkscape:version="0.47 r22583"
   sodipodi:docname="lander.png">
  <defs
     id="defs4845">
    <inkscape:perspective
       sodipodi:type="inkscape:persp3d"
       inkscape:vp_x="0 : 526.18109 : 1"
       inkscape:vp_y="0 : 1000 : 0"
       inkscape:vp_z="744.09448 : 526.18109 : 1"
       inkscape:persp3d-origin="372.04724 : 350.78739 : 1"
       id="perspective4851" />
    <inkscape:perspective
       id="perspective4833"
       inkscape:persp3d-origin="0.5 : 0.33333333 : 1"
       inkscape:vp_z="1 : 0.5 : 1"
       inkscape:vp_y="0 : 1000 : 0"
       inkscape:vp_x="0 : 0.5 : 1"
       sodipodi:type="inkscape:persp3d" />
  </defs>
  <sodipodi:namedview
     id="base"
     pagecolor="#ffffff"
     bordercolor="#666666"
     borderopacity="1.0"
     inkscape:pageopacity="0.0"
     inkscape:pageshadow="2"
     inkscape:zoom="0.61298343"
     inkscape:cx="293.90266"
     inkscape:cy="348.57143"
     inkscape:document-units="px"
     inkscape:current-layer="layer1"
     showgrid="true"
     inkscape:window-width="1191"
     inkscape:window-height="881"
     inkscape:window-x="305"
     inkscape:window-y="100"
     inkscape:window-maximized="0">
    <inkscape:grid
       type="xygrid"
       id="grid4872"
       empspacing="5"
       visible="true"
       enabled="true"
       snapvisiblegridlinesonly="true" />
  </sodipodi:namedview>
  <metadata
     id="metadata4848">
    <rdf:RDF>
      <cc:Work
         rdf:about="">
        <dc:format>image/svg+xml</dc:format>
        <dc:type
           rdf:resource="http://purl.org/dc/dcmitype/StillImage" />
        <dc:title></dc:title>
      </cc:Work>
    </rdf:RDF>
  </metadata>
  <g
     inkscape:label="Layer 1"
     inkscape:groupmode="layer"
     id="layer1"
     transform="translate(-27.499996,-239.86218)">
    <path
       style="fill:#04b012;fill-opacity:1;stroke:#e19731;stroke-width:25;stroke-linecap:butt;stroke-linejoin:miter;stroke-miterlimit:4;stroke-opacity:1;stroke-dasharray:none;display:inline"
       d="m 39.999996,772.36218 c 0,0 0,80.00002 80.000004,80.00002 l 720,0 c 88.57143,0 80,-80.00002 80,-80.00002 0,0 -162.87654,-516.7212 -440,-520 -274.28571,2.85715 -440.000004,520 -440.000004,520 z"
       id="path4450"
       sodipodi:nodetypes="cccccc" />
    <path
       sodipodi:type="arc"
       style="fill:#bae1f2;fill-opacity:1;stroke:#000000;stroke-width:25;stroke-linejoin:miter;stroke-miterlimit:4;stroke-opacity:1;stroke-dasharray:none;display:inline"
       id="path4452"
       sodipodi:cx="40"
       sodipodi:cy="732.36218"
       sodipodi:rx="80"
       sodipodi:ry="80"
       d="m 120,732.36218 c 0,44.18278 -35.81722,80 -80,80 -44.18278,0 -80,-35.81722 -80,-80 0,-44.18278 35.81722,-80 80,-80 44.18278,0 80,35.81722 80,80 z"
       transform="matrix(1.25,0,0,1.25,430,-403.09055)" />
    <path
       style="fill:none;stroke:#e19731;stroke-width:25;stroke-linecap:butt;stroke-linejoin:miter;stroke-miterlimit:4;stroke-opacity:1;stroke-dasharray:none;display:inline"
       d="m 280,852.3622 -80,120"
       id="path4454" />
    <path
       sodipodi:type="arc"
       style="fill:#e19731;fill-opacity:1;stroke:#e19731;stroke-width:25;stroke-linejoin:miter;stroke-miterlimit:4;stroke-opacity:1;stroke-dasharray:none;display:inline"
       id="path4539"
       sodipodi:cx="-240"
       sodipodi:cy="1192.3622"
       sodipodi:rx="80"
       sodipodi:ry="20"
       d="m -160,1192.3622 c 0,11.0457 -35.81722,20 -80,20 -44.18278,0 -80,-8.9543 -80,-20 0,-11.0457 35.81722,-20 80,-20 44.18278,0 80,8.9543 80,20 z"
       transform="translate(440,-220)" />
    <path
       style="fill:none;stroke:#e19731;stroke-width:25;stroke-linecap:butt;stroke-linejoin:miter;stroke-miterlimit:4;stroke-opacity:1;stroke-dasharray:none;display:inline"
       d="m 680,852.3622 80,120"
       id="path4454-0" />
    <path
       sodipodi:type="arc"
       style="fill:#e19731;fill-opacity:1;stroke:#e19731;stroke-width:25;stroke-linejoin:miter;stroke-miterlimit:4;stroke-opacity:1;stroke-dasharray:none;display:inline"
       id="path4539-8"
       sodipodi:cx="-240"
       sodipodi:cy="1192.3622"
       sodipodi:rx="80"
       sodipodi:ry="20"
       d="m -160,1192.3622 c 0,11.0457 -35.81722,20 -80,20 -44.18278,0 -80,-8.9543 -80,-20 0,-11.0457 35.81722,-20 80,-20 44.18278,0 80,8.9543 80,20 z"
       transform="matrix(-1,0,0,1,520,-220.00002)" />
  </g>
</svg>
